<?xml version="1.0" encoding="UTF-8"?>
<!DOCTYPE svg PUBLIC "-//W3C//DTD SVG 1.1//EN" "http://www.w3.org/Graphics/SVG/1.1/DTD/svg11.dtd">
<!-- Creator: CorelDRAW 2019 (64 Bit) -->
<svg xmlns="http://www.w3.org/2000/svg" xml:space="preserve" width="87mm" height="30.5mm" version="1.1" style="shape-rendering:geometricPrecision; text-rendering:geometricPrecision; image-rendering:optimizeQuality; fill-rule:evenodd; clip-rule:evenodd"
viewBox="0 0 8700 3050"
 xmlns:xlink="http://www.w3.org/1999/xlink">
 <defs>
  <style type="text/css">
   <![CDATA[
    .str3 {stroke:#1AB394;stroke-width:10.7;stroke-miterlimit:22.9256}
    .str4 {stroke:#1AB394;stroke-width:10.7;stroke-miterlimit:22.9256}
    .str6 {stroke:#1AB394;stroke-width:10.7;stroke-miterlimit:22.9256}
    .str14 {stroke:#1AB394;stroke-width:10.7;stroke-miterlimit:22.9256}
    .str9 {stroke:#1AB394;stroke-width:10.7;stroke-miterlimit:22.9256}
    .str11 {stroke:#1AB394;stroke-width:10.7;stroke-miterlimit:22.9256}
    .str5 {stroke:#1AB394;stroke-width:10.7;stroke-miterlimit:22.9256}
    .str7 {stroke:#1AB394;stroke-width:10.7;stroke-miterlimit:22.9256}
    .str1 {stroke:#1AB394;stroke-width:10.7;stroke-miterlimit:22.9256}
    .str10 {stroke:#1AB394;stroke-width:10.7;stroke-miterlimit:22.9256}
    .str12 {stroke:#1AB394;stroke-width:10.7;stroke-miterlimit:22.9256}
    .str15 {stroke:#1AB394;stroke-width:10.7;stroke-miterlimit:22.9256}
    .str8 {stroke:#1AB394;stroke-width:10.7;stroke-miterlimit:22.9256}
    .str16 {stroke:#1AB394;stroke-width:10.7;stroke-miterlimit:22.9256}
    .str0 {stroke:#1AB394;stroke-width:10.7;stroke-miterlimit:22.9256}
    .str13 {stroke:#1AB394;stroke-width:10.7;stroke-miterlimit:22.9256}
    .str2 {stroke:#1AB394;stroke-width:10.7;stroke-miterlimit:22.9256}
    .fil1 {fill:none}
    .fil0 {fill:#1AB394}
   ]]>
  </style>
 </defs>
 <g id="Camada_x0020_1">
  <metadata id="CorelCorpID_0Corel-Layer"/>
  <path class="fil0" d="M8381.41 1896.89l23.44 -0.77 -5.19 32.8 -18.25 -32.03zm192.64 -280.88l0 63.84c-5.59,360.89 -143.77,723.68 -383.49,940.72 -47.53,43.04 -207.52,161.19 -271.44,176.08l-0.38 -102.36 -63.93 -15.87 229.15 -154.94 -6.57 -27.01 12.83 15.17 4.3 6.24 168.52 -207.93 -5.55 -4.5 -283.79 0 0 10.92 -27.3 0 16.38 -16.38 16.37 -16.37c-5.45,25.76 8.31,17.48 48.58,16.68l224.97 -0.52 -6.12 -21.61 10.91 16.37 10.92 0c16.84,-72.26 186.69,-333.62 98.24,-398.42l-5.46 -10.91 21.84 -10.92 0 16.37c39.6,-0.88 35.25,-52.94 27.28,-65.49l16.38 -245.6 0.09 -179.91 -27.38 10.72c25,-34.12 29.59,2.92 23.25,-60.45 -3.2,-31.92 -4.7,-49.2 -8.15,-80.18 -3.11,-27.86 -21.65,-135.37 -16.39,-154.09l-6.84 -27.29 -8.24 -13.76 -4.33 -2.61 -1.13 -5.46 -87.33 -387.5 -5.45 -27.29 -5.46 21.83 -21.84 5.46 0 -10.92c-44.78,0 -129.43,-12.96 -162.17,7.02 -19.5,11.89 -70.43,66.26 -72.51,91.22l-223.77 207.4 -114.61 92.78 161.39 -0.71 -3.11 -15.66 27.29 16.37 -5.46 10.92 -16.38 10.91 0 -10.91c-50.47,0 -103.3,-1.63 -153.38,-0.58 -52.03,1.11 -62.87,36.74 -98.34,55.37l6.12 21.61 -15.27 -9.54 -226.25 179.35 17.76 43.05 -28.26 -33.83 -162.77 148.44 245.6 0 0 -16.37 21.83 10.92 21.84 27.28 -36.3 -9.71 -12.82 15.17 5.45 -21.83c-70.39,0 -243.12,-22.61 -272.89,21.83 -40.87,27.37 -196.14,244.98 -180.1,283.8l-27.28 93.26 76.4 -5.93 38.2 -5.46 -20.62 19.92 15.16 12.82 -38.2 10.92 5.43 -20.97 -81.78 -6.31 -6.19 105.95 -141.23 30.49c0,-509.71 393.31,-751.45 682.22,-982.4 211.89,-169.38 721.07,-600.34 785.92,-878.7 51.34,59.07 184.91,557.96 216.13,684.41 58.04,235.08 86.9,478.52 89.51,765.59zm-289.26 -964.26l-38.21 -16.37 10.72 27.37 -147.17 -0.09 98.24 -92.78 30.21 -63.74 46.21 145.61z"/>
  <path class="fil0" d="M578.41 2283.62l-81.86 0 0 -278.35 98.24 0c88.41,0 147.36,48.68 147.36,136.45 0,90.14 -72.22,141.9 -163.74,141.9zm-436.58 -462.71l-0.03 140.7c20.23,4.72 109.15,35.71 109.15,54.58l0 649.48c0,29.84 -109.15,35.64 -109.15,65.49l0 130.99 458.45 0 0 -141.9c-18.97,-4.43 -103.7,-36.88 -103.7,-54.58l0 -207.4c122.52,0 122.31,8.02 195.68,180.91 23.82,56.13 87.27,172.47 99.04,222.97l289.26 0 0 -141.9c-112.7,-26.26 -107.84,-46.51 -152.82,-136.45 -10.69,-21.39 -97.91,-187.08 -98.24,-191.02 193.13,-44.99 279.86,-578.53 -191.02,-578.53l-496.62 6.66z"/>
  <path class="fil0" d="M4737.24 2234.5l32.74 0c47.23,0 87.32,55.06 87.32,103.7l0 21.83 -240.14 0c4.93,-59.17 56.36,-125.53 120.08,-125.53zm-371.14 201.94l0 65.49c0,210.45 140.62,371.13 349.3,371.13 185.85,0 226.77,-21.55 382.05,-125.53l-67.4 -135.44c-114.87,25.92 -349.33,196.99 -418.35,-99.24l485.75 0c0,-153.15 28.56,-220.22 -48.92,-338.58 -159.71,-243.98 -682.43,-165.07 -682.43,262.17z"/>
  <path class="fil0" d="M1462.57 2234.5l21.84 0c66.13,0 98.24,58.05 98.24,125.53l-240.14 0c1.37,-61.76 56.67,-125.53 120.06,-125.53zm-32.74 638.56c190.04,0 237.28,-21.28 392.95,-125.53l-67.51 -135.43c-50.69,3.38 -136.36,69.94 -249.03,69.94 -99.72,0 -167.08,-74.14 -169.19,-169.19l485.73 0 5.46 -147.36c0,-196.64 -138.46,-327.47 -338.37,-327.47 -537.84,0 -521.36,835.04 -60.04,835.04z"/>
  <path class="fil0" d="M6974.92 2682.04c-154.97,0 -147.36,-152.99 -147.36,-261.97 0,-135.76 52.06,-185.57 163.73,-185.57 105.39,0 125.53,120.59 125.53,223.77 0,115.28 -27.8,223.77 -141.9,223.77zm-392.96 -245.6l0 65.49c0,210.83 129.68,371.13 338.38,371.13l76.41 0c236.34,0 365.67,-198.45 365.67,-447.53 0,-233.85 -140.15,-387.51 -376.58,-387.51 -239.87,0 -403.88,161.56 -403.88,398.42z"/>
  <path class="fil0" d="M5997.98 2463.73c0,-107.67 15.55,-229.23 136.45,-229.23l32.74 0c121.55,0 120.07,164.01 120.07,251.06 0,104.34 -37.43,196.48 -141.9,196.48 -120.23,0 -147.36,-98.36 -147.36,-218.31zm-245.6 -5.46c0,234.97 105.79,414.79 338.38,414.79l76.41 0c209.48,0 365.67,-183.06 365.67,-392.96l0 -65.49c0,-228.64 -145.28,-376.59 -376.59,-376.59 -250.47,0 -403.87,169.77 -403.87,420.25z"/>
  <path class="fil0" d="M3116.27 2469.19c0,225.19 134.38,403.87 354.76,403.87 194.76,0 207.37,-23.18 360.22,-125.53l-78.98 -145.91c-55.27,14 -99.83,80.42 -210.28,80.42 -134.03,0 -180.11,-106.67 -180.11,-240.14 0,-102.32 44.89,-207.4 141.9,-207.4 71.4,0 108.39,-10.65 118.51,34.31 21.73,96.48 -22.95,80.3 165.3,80.3l6.67 -256.47c-57.37,-26.91 -186.79,-54.62 -268.65,-54.62 -259.41,0 -409.34,171.01 -409.34,431.17z"/>
  <path class="fil0" d="M2243.04 2873.06c199.7,0 210.18,-25.06 360.21,-125.53l-77.66 -146.66c-61.55,32.53 -121.5,81.17 -217.06,81.17 -228.7,0 -232.18,-447.54 -21.83,-447.54l103.6 6.32c3.74,137.93 30.38,108.29 169.28,108.29l5.46 -245.6c-0.43,-35.63 -212.01,-65.49 -272.88,-65.49 -542.46,0 -521.03,835.04 -49.12,835.04z"/>
  <path class="fil0" d="M7384.25 1737.85c0,143.12 -21.87,114.29 120.07,147.36l0 807.74c-24.47,2.04 -120.07,27.73 -120.07,49.12 0,73.57 -10.95,120.08 16.37,120.08l474.84 0 0 -136.45 -130.57 -34.32 -0.42 -980.83c-50.51,0 -360.22,-3.08 -360.22,27.3z"/>
  <polygon class="fil0" points="3874.93,1722.15 3874.91,1857.91 3989.86,1883.83 3989.52,2692.95 3875.28,2726.9 3874.91,2862.15 4360.65,2862.15 4360.65,2725.7 4230.27,2690.72 4229.67,1710.55 "/>
  <path class="fil0" d="M5261.21 1874.44l-0.03 201.79 -136.22 18 -0.22 162.1 136.44 0 0 371.13c0,125.53 69.39,245.6 191.02,245.6l60.04 0c74.61,0 201.54,-56.9 229.23,-98.24l-54.7 -120.02c-65.71,5.39 -190.9,115.84 -190.9,-92.83l0 -305.64 191.02 0c12.57,0 16.37,-3.79 16.37,-16.37l0 -163.73 -207.39 0 0 -245.6 -234.66 43.81z"/>
  <path class="fil0" d="M2652.4 2061.1l-0.03 135.2 119.63 34.18c0.17,38.02 6.58,435.31 -3.01,453.57 -7.43,14.17 -95.47,39.89 -116.62,41.65l0 136.45 458.45 0 0 -136.45 -103.15 -34.34 -0.55 -636.97 -354.72 6.71z"/>
  <path class="fil0" d="M2745.15 1803.34c0,121.55 38.64,158.27 147.36,158.27 153.39,0 160.34,-278.34 10.91,-278.34l-49.12 0c-50.63,0 -109.15,65.12 -109.15,120.07z"/>
  <g id="_2006425437536">
   <polyline class="fil1 str0" points="8208.37,569.88 8284.79,651.75 8073.42,663.04 8009.46,742.64 8115.59,924.64 8391.27,1088.37 8109.53,1229.07 7845.82,1065.83 7790.58,955.84 7635.66,1061.01 7853.78,1070.77 8115.59,924.64 8284.79,651.75 "/>
   <polyline class="fil1 str1" points="8109.92,929.43 8109.53,1229.07 8268.41,1481.33 8450.05,1376.52 8444.38,1596.82 8268.41,1481.33 7960.42,1474.22 7698.08,1333.98 7574.54,1120.68 7335.75,1299.79 7440.74,1493.45 7700.8,1639.61 7858.44,1898.36 8110.13,1743.3 8366.65,1896.12 8115.59,2038.02 7962.78,2299.99 7793.59,2201.75 "/>
   <polyline class="fil1 str2" points="7858.44,1898.36 8110.13,2032.57 8115.59,1748.76 8262.95,1475.88 "/>
   <polyline class="fil1 str3" points="8115.59,1748.76 7960.42,1474.22 7700.8,1639.61 "/>
   <polyline class="fil1 str4" points="7440.74,1493.45 7695.35,1339.43 7853.78,1070.77 "/>
   <line class="fil1 str5" x1="7960.42" y1="1474.22" x2="8110.13" y2= "1230.28" />
   <polygon class="fil1 str6" points="7143.84,1480.29 7440.74,1493.45 7296.93,1743.3 "/>
   <polyline class="fil1 str7" points="6953.39,1756.03 7029.47,1896.98 7296.93,1743.3 7367.88,1786.97 "/>
   <line class="fil1 str8" x1="6919.22" y1="1884.65" x2="7029.47" y2= "1896.98" />
   <polyline class="fil1 str9" points="6980.38,1994.36 7029.47,1896.98 7226.89,2000.73 "/>
   <line class="fil1 str10" x1="7291.47" y1="2005.27" x2="7296.93" y2= "1743.3" />
   <line class="fil1 str11" x1="7356.96" y1="2010.73" x2="7455.2" y2= "1950.7" />
   <polyline class="fil1 str12" points="7782.67,2021.65 7858.44,1898.36 7782.67,1890.66 "/>
   <polyline class="fil1 str13" points="8100.32,2539.87 7962.78,2299.99 8280.83,2306.78 8115.59,2038.02 "/>
   <line class="fil1 str14" x1="7788.13" y1="2594.71" x2="7840.94" y2= "2683.43" />
   <line class="fil1 str15" x1="7782.67" y1="2409.15" x2="7962.78" y2= "2299.99" />
   <polyline class="fil1 str16" points="8408.06,1965.68 8366.65,1896.12 8422.97,1808.62 "/>
   <line class="fil1 str16" x1="8366.65" y1="1896.12" x2="8434.35" y2= "1891.77" />
  </g>
 </g>
</svg>
